<svg xmlns="http://www.w3.org/2000/svg" viewBox="0 0 800 500" role="img" aria-label="Estado final"><rect width="800" height="500" fill="#FBF9FF"/><rect x="40" y="380" width="32" height="60" rx="4" fill="#F4B740" fill-opacity=".85"/><rect x="82" y="343" width="32" height="97" rx="4" fill="#FF6B5B" fill-opacity=".85"/><rect x="124" y="306" width="32" height="134" rx="4" fill="#F4B740" fill-opacity=".85"/><rect x="166" y="269" width="32" height="171" rx="4" fill="#FF6B5B" fill-opacity=".85"/><rect x="208" y="232" width="32" height="208" rx="4" fill="#F4B740" fill-opacity=".85"/><rect x="251" y="195" width="32" height="245" rx="4" fill="#FF6B5B" fill-opacity=".85"/><rect x="293" y="158" width="32" height="282" rx="4" fill="#F4B740" fill-opacity=".85"/><rect x="335" y="121" width="32" height="319" rx="4" fill="#FF6B5B" fill-opacity=".85"/><rect x="377" y="84" width="32" height="356" rx="4" fill="#F4B740" fill-opacity=".85"/><rect x="420" y="347" width="32" height="93" rx="4" fill="#FF6B5B" fill-opacity=".85"/><rect x="462" y="310" width="32" height="130" rx="4" fill="#F4B740" fill-opacity=".85"/><rect x="504" y="273" width="32" height="167" rx="4" fill="#FF6B5B" fill-opacity=".85"/><rect x="546" y="236" width="32" height="204" rx="4" fill="#F4B740" fill-opacity=".85"/><rect x="588" y="199" width="32" height="241" rx="4" fill="#FF6B5B" fill-opacity=".85"/><rect x="631" y="162" width="32" height="278" rx="4" fill="#F4B740" fill-opacity=".85"/><rect x="673" y="125" width="32" height="315" rx="4" fill="#FF6B5B" fill-opacity=".85"/><rect x="715" y="88" width="32" height="352" rx="4" fill="#F4B740" fill-opacity=".85"/><rect x="757" y="351" width="32" height="89" rx="4" fill="#FF6B5B" fill-opacity=".85"/><line x1="30" y1="450" x2="770" y2="450" stroke="#1A1030" stroke-width="3"/></svg>
