<svg xmlns="http://www.w3.org/2000/svg" viewBox="0 0 800 500" role="img" aria-label="Figura 5: composição geométrica ilustrativa"><rect width="800" height="500" fill="#FBF9FF"/><rect x="0" y="0" width="800" height="500" fill="#6D4AC8" fill-opacity=".05"/><line x1="0" y1="0" x2="0" y2="500" stroke="#1A1030" stroke-opacity=".05"/><line x1="50" y1="0" x2="50" y2="500" stroke="#1A1030" stroke-opacity=".05"/><line x1="100" y1="0" x2="100" y2="500" stroke="#1A1030" stroke-opacity=".05"/><line x1="150" y1="0" x2="150" y2="500" stroke="#1A1030" stroke-opacity=".05"/><line x1="200" y1="0" x2="200" y2="500" stroke="#1A1030" stroke-opacity=".05"/><line x1="250" y1="0" x2="250" y2="500" stroke="#1A1030" stroke-opacity=".05"/><line x1="300" y1="0" x2="300" y2="500" stroke="#1A1030" stroke-opacity=".05"/><line x1="350" y1="0" x2="350" y2="500" stroke="#1A1030" stroke-opacity=".05"/><line x1="400" y1="0" x2="400" y2="500" stroke="#1A1030" stroke-opacity=".05"/><line x1="450" y1="0" x2="450" y2="500" stroke="#1A1030" stroke-opacity=".05"/><line x1="500" y1="0" x2="500" y2="500" stroke="#1A1030" stroke-opacity=".05"/><line x1="550" y1="0" x2="550" y2="500" stroke="#1A1030" stroke-opacity=".05"/><line x1="600" y1="0" x2="600" y2="500" stroke="#1A1030" stroke-opacity=".05"/><line x1="650" y1="0" x2="650" y2="500" stroke="#1A1030" stroke-opacity=".05"/><line x1="700" y1="0" x2="700" y2="500" stroke="#1A1030" stroke-opacity=".05"/><line x1="750" y1="0" x2="750" y2="500" stroke="#1A1030" stroke-opacity=".05"/><line x1="800" y1="0" x2="800" y2="500" stroke="#1A1030" stroke-opacity=".05"/><line x1="0" y1="0" x2="800" y2="0" stroke="#1A1030" stroke-opacity=".05"/><line x1="0" y1="50" x2="800" y2="50" stroke="#1A1030" stroke-opacity=".05"/><line x1="0" y1="100" x2="800" y2="100" stroke="#1A1030" stroke-opacity=".05"/><line x1="0" y1="150" x2="800" y2="150" stroke="#1A1030" stroke-opacity=".05"/><line x1="0" y1="200" x2="800" y2="200" stroke="#1A1030" stroke-opacity=".05"/><line x1="0" y1="250" x2="800" y2="250" stroke="#1A1030" stroke-opacity=".05"/><line x1="0" y1="300" x2="800" y2="300" stroke="#1A1030" stroke-opacity=".05"/><line x1="0" y1="350" x2="800" y2="350" stroke="#1A1030" stroke-opacity=".05"/><line x1="0" y1="400" x2="800" y2="400" stroke="#1A1030" stroke-opacity=".05"/><line x1="0" y1="450" x2="800" y2="450" stroke="#1A1030" stroke-opacity=".05"/><line x1="0" y1="500" x2="800" y2="500" stroke="#1A1030" stroke-opacity=".05"/><path d="M434 347 L475 429 L393 429Z" fill="#6D4AC8" fill-opacity="0.83"/><rect x="179" y="136" width="85" height="85" rx="14" fill="#14A38B" fill-opacity="0.42" transform="rotate(-12 221 178)"/><rect x="85" y="206" width="85" height="85" rx="14" fill="#FF6B5B" fill-opacity="0.69" transform="rotate(16 127 248)"/><circle cx="175" cy="361" r="24" fill="#6D4AC8" fill-opacity="0.74"/><path d="M458 286 A44 44 0 0 1 546 286Z" fill="#14A38B" fill-opacity="0.55"/><path d="M273 217 L298 267 L248 267Z" fill="#FF6B5B" fill-opacity="0.54"/><path d="M304 422 A56 56 0 0 1 416 422Z" fill="#6D4AC8" fill-opacity="0.86"/><circle cx="677" cy="321" r="20" fill="#14A38B" fill-opacity="0.44"/><rect x="593" y="286" width="40" height="40" rx="6" fill="#FF6B5B" fill-opacity="0.72" transform="rotate(11 613 306)"/><path d="M60 241 L180 161 L320 202 L460 158 L600 356 L740 333" fill="none" stroke="#1A1030" stroke-opacity=".55" stroke-width="3" stroke-linecap="round" stroke-linejoin="round"/><circle cx="60" cy="241" r="6" fill="#FBF9FF" stroke="#1A1030" stroke-width="3"/><circle cx="180" cy="161" r="6" fill="#FBF9FF" stroke="#1A1030" stroke-width="3"/><circle cx="320" cy="202" r="6" fill="#FBF9FF" stroke="#1A1030" stroke-width="3"/><circle cx="460" cy="158" r="6" fill="#FBF9FF" stroke="#1A1030" stroke-width="3"/><circle cx="600" cy="356" r="6" fill="#FBF9FF" stroke="#1A1030" stroke-width="3"/><circle cx="740" cy="333" r="6" fill="#FBF9FF" stroke="#1A1030" stroke-width="3"/><rect x="0" y="0" width="800" height="500" fill="none" stroke="#1A1030" stroke-opacity=".15" stroke-width="2"/></svg>
