<svg xmlns="http://www.w3.org/2000/svg" viewBox="0 0 800 500" role="img" aria-label="Figura 4: composição geométrica ilustrativa"><rect width="800" height="500" fill="#FBF9FF"/><rect x="0" y="0" width="800" height="500" fill="#F4B740" fill-opacity=".05"/><line x1="0" y1="0" x2="0" y2="500" stroke="#1A1030" stroke-opacity=".05"/><line x1="50" y1="0" x2="50" y2="500" stroke="#1A1030" stroke-opacity=".05"/><line x1="100" y1="0" x2="100" y2="500" stroke="#1A1030" stroke-opacity=".05"/><line x1="150" y1="0" x2="150" y2="500" stroke="#1A1030" stroke-opacity=".05"/><line x1="200" y1="0" x2="200" y2="500" stroke="#1A1030" stroke-opacity=".05"/><line x1="250" y1="0" x2="250" y2="500" stroke="#1A1030" stroke-opacity=".05"/><line x1="300" y1="0" x2="300" y2="500" stroke="#1A1030" stroke-opacity=".05"/><line x1="350" y1="0" x2="350" y2="500" stroke="#1A1030" stroke-opacity=".05"/><line x1="400" y1="0" x2="400" y2="500" stroke="#1A1030" stroke-opacity=".05"/><line x1="450" y1="0" x2="450" y2="500" stroke="#1A1030" stroke-opacity=".05"/><line x1="500" y1="0" x2="500" y2="500" stroke="#1A1030" stroke-opacity=".05"/><line x1="550" y1="0" x2="550" y2="500" stroke="#1A1030" stroke-opacity=".05"/><line x1="600" y1="0" x2="600" y2="500" stroke="#1A1030" stroke-opacity=".05"/><line x1="650" y1="0" x2="650" y2="500" stroke="#1A1030" stroke-opacity=".05"/><line x1="700" y1="0" x2="700" y2="500" stroke="#1A1030" stroke-opacity=".05"/><line x1="750" y1="0" x2="750" y2="500" stroke="#1A1030" stroke-opacity=".05"/><line x1="800" y1="0" x2="800" y2="500" stroke="#1A1030" stroke-opacity=".05"/><line x1="0" y1="0" x2="800" y2="0" stroke="#1A1030" stroke-opacity=".05"/><line x1="0" y1="50" x2="800" y2="50" stroke="#1A1030" stroke-opacity=".05"/><line x1="0" y1="100" x2="800" y2="100" stroke="#1A1030" stroke-opacity=".05"/><line x1="0" y1="150" x2="800" y2="150" stroke="#1A1030" stroke-opacity=".05"/><line x1="0" y1="200" x2="800" y2="200" stroke="#1A1030" stroke-opacity=".05"/><line x1="0" y1="250" x2="800" y2="250" stroke="#1A1030" stroke-opacity=".05"/><line x1="0" y1="300" x2="800" y2="300" stroke="#1A1030" stroke-opacity=".05"/><line x1="0" y1="350" x2="800" y2="350" stroke="#1A1030" stroke-opacity=".05"/><line x1="0" y1="400" x2="800" y2="400" stroke="#1A1030" stroke-opacity=".05"/><line x1="0" y1="450" x2="800" y2="450" stroke="#1A1030" stroke-opacity=".05"/><line x1="0" y1="500" x2="800" y2="500" stroke="#1A1030" stroke-opacity=".05"/><path d="M427 308 L486 426 L368 426Z" fill="#F4B740" fill-opacity="0.74"/><path d="M325 193 L358 259 L292 259Z" fill="#6D4AC8" fill-opacity="0.68"/><path d="M280 317 L312 381 L248 381Z" fill="#14A38B" fill-opacity="0.82"/><path d="M265 331 A52 52 0 0 1 369 331Z" fill="#F4B740" fill-opacity="0.38"/><circle cx="649" cy="344" r="31" fill="#6D4AC8" fill-opacity="0.37"/><path d="M550 256 A42 42 0 0 1 634 256Z" fill="#14A38B" fill-opacity="0.77"/><circle cx="290" cy="181" r="55" fill="#F4B740" fill-opacity="0.58"/><path d="M166 127 L188 171 L144 171Z" fill="#6D4AC8" fill-opacity="0.54"/><rect x="510" y="75" width="114" height="114" rx="19" fill="#14A38B" fill-opacity="0.72" transform="rotate(11 567 132)"/><path d="M60 203 L180 202 L320 307 L460 223 L600 343 L740 281" fill="none" stroke="#1A1030" stroke-opacity=".55" stroke-width="3" stroke-linecap="round" stroke-linejoin="round"/><circle cx="60" cy="203" r="6" fill="#FBF9FF" stroke="#1A1030" stroke-width="3"/><circle cx="180" cy="202" r="6" fill="#FBF9FF" stroke="#1A1030" stroke-width="3"/><circle cx="320" cy="307" r="6" fill="#FBF9FF" stroke="#1A1030" stroke-width="3"/><circle cx="460" cy="223" r="6" fill="#FBF9FF" stroke="#1A1030" stroke-width="3"/><circle cx="600" cy="343" r="6" fill="#FBF9FF" stroke="#1A1030" stroke-width="3"/><circle cx="740" cy="281" r="6" fill="#FBF9FF" stroke="#1A1030" stroke-width="3"/><rect x="0" y="0" width="800" height="500" fill="none" stroke="#1A1030" stroke-opacity=".15" stroke-width="2"/></svg>
