<svg xmlns="http://www.w3.org/2000/svg" viewBox="0 0 800 500" role="img" aria-label="Figura 6: composição geométrica ilustrativa"><rect width="800" height="500" fill="#FBF9FF"/><rect x="0" y="0" width="800" height="500" fill="#FF6B5B" fill-opacity=".05"/><line x1="0" y1="0" x2="0" y2="500" stroke="#1A1030" stroke-opacity=".05"/><line x1="50" y1="0" x2="50" y2="500" stroke="#1A1030" stroke-opacity=".05"/><line x1="100" y1="0" x2="100" y2="500" stroke="#1A1030" stroke-opacity=".05"/><line x1="150" y1="0" x2="150" y2="500" stroke="#1A1030" stroke-opacity=".05"/><line x1="200" y1="0" x2="200" y2="500" stroke="#1A1030" stroke-opacity=".05"/><line x1="250" y1="0" x2="250" y2="500" stroke="#1A1030" stroke-opacity=".05"/><line x1="300" y1="0" x2="300" y2="500" stroke="#1A1030" stroke-opacity=".05"/><line x1="350" y1="0" x2="350" y2="500" stroke="#1A1030" stroke-opacity=".05"/><line x1="400" y1="0" x2="400" y2="500" stroke="#1A1030" stroke-opacity=".05"/><line x1="450" y1="0" x2="450" y2="500" stroke="#1A1030" stroke-opacity=".05"/><line x1="500" y1="0" x2="500" y2="500" stroke="#1A1030" stroke-opacity=".05"/><line x1="550" y1="0" x2="550" y2="500" stroke="#1A1030" stroke-opacity=".05"/><line x1="600" y1="0" x2="600" y2="500" stroke="#1A1030" stroke-opacity=".05"/><line x1="650" y1="0" x2="650" y2="500" stroke="#1A1030" stroke-opacity=".05"/><line x1="700" y1="0" x2="700" y2="500" stroke="#1A1030" stroke-opacity=".05"/><line x1="750" y1="0" x2="750" y2="500" stroke="#1A1030" stroke-opacity=".05"/><line x1="800" y1="0" x2="800" y2="500" stroke="#1A1030" stroke-opacity=".05"/><line x1="0" y1="0" x2="800" y2="0" stroke="#1A1030" stroke-opacity=".05"/><line x1="0" y1="50" x2="800" y2="50" stroke="#1A1030" stroke-opacity=".05"/><line x1="0" y1="100" x2="800" y2="100" stroke="#1A1030" stroke-opacity=".05"/><line x1="0" y1="150" x2="800" y2="150" stroke="#1A1030" stroke-opacity=".05"/><line x1="0" y1="200" x2="800" y2="200" stroke="#1A1030" stroke-opacity=".05"/><line x1="0" y1="250" x2="800" y2="250" stroke="#1A1030" stroke-opacity=".05"/><line x1="0" y1="300" x2="800" y2="300" stroke="#1A1030" stroke-opacity=".05"/><line x1="0" y1="350" x2="800" y2="350" stroke="#1A1030" stroke-opacity=".05"/><line x1="0" y1="400" x2="800" y2="400" stroke="#1A1030" stroke-opacity=".05"/><line x1="0" y1="450" x2="800" y2="450" stroke="#1A1030" stroke-opacity=".05"/><line x1="0" y1="500" x2="800" y2="500" stroke="#1A1030" stroke-opacity=".05"/><rect x="285" y="66" width="78" height="78" rx="13" fill="#FF6B5B" fill-opacity="0.79" transform="rotate(20 324 105)"/><path d="M572 308 L624 412 L520 412Z" fill="#F4B740" fill-opacity="0.58"/><circle cx="367" cy="133" r="40" fill="#6D4AC8" fill-opacity="0.84"/><path d="M186 420 A48 48 0 0 1 282 420Z" fill="#FF6B5B" fill-opacity="0.74"/><circle cx="240" cy="280" r="26" fill="#F4B740" fill-opacity="0.67"/><rect x="194" y="189" width="66" height="66" rx="11" fill="#6D4AC8" fill-opacity="0.58" transform="rotate(-23 227 222)"/><path d="M282 82 L327 172 L237 172Z" fill="#FF6B5B" fill-opacity="0.64"/><circle cx="467" cy="259" r="54" fill="#F4B740" fill-opacity="0.85"/><rect x="618" y="160" width="99" height="99" rx="16" fill="#6D4AC8" fill-opacity="0.49" transform="rotate(-24 667 209)"/><path d="M60 229 L180 238 L320 355 L460 306 L600 280 L740 404" fill="none" stroke="#1A1030" stroke-opacity=".55" stroke-width="3" stroke-linecap="round" stroke-linejoin="round"/><circle cx="60" cy="229" r="6" fill="#FBF9FF" stroke="#1A1030" stroke-width="3"/><circle cx="180" cy="238" r="6" fill="#FBF9FF" stroke="#1A1030" stroke-width="3"/><circle cx="320" cy="355" r="6" fill="#FBF9FF" stroke="#1A1030" stroke-width="3"/><circle cx="460" cy="306" r="6" fill="#FBF9FF" stroke="#1A1030" stroke-width="3"/><circle cx="600" cy="280" r="6" fill="#FBF9FF" stroke="#1A1030" stroke-width="3"/><circle cx="740" cy="404" r="6" fill="#FBF9FF" stroke="#1A1030" stroke-width="3"/><rect x="0" y="0" width="800" height="500" fill="none" stroke="#1A1030" stroke-opacity=".15" stroke-width="2"/></svg>
