<svg xmlns="http://www.w3.org/2000/svg" viewBox="0 0 800 500" role="img" aria-label="Figura 3: composição geométrica ilustrativa"><rect width="800" height="500" fill="#FBF9FF"/><rect x="0" y="0" width="800" height="500" fill="#FF6B5B" fill-opacity=".05"/><line x1="0" y1="0" x2="0" y2="500" stroke="#1A1030" stroke-opacity=".05"/><line x1="50" y1="0" x2="50" y2="500" stroke="#1A1030" stroke-opacity=".05"/><line x1="100" y1="0" x2="100" y2="500" stroke="#1A1030" stroke-opacity=".05"/><line x1="150" y1="0" x2="150" y2="500" stroke="#1A1030" stroke-opacity=".05"/><line x1="200" y1="0" x2="200" y2="500" stroke="#1A1030" stroke-opacity=".05"/><line x1="250" y1="0" x2="250" y2="500" stroke="#1A1030" stroke-opacity=".05"/><line x1="300" y1="0" x2="300" y2="500" stroke="#1A1030" stroke-opacity=".05"/><line x1="350" y1="0" x2="350" y2="500" stroke="#1A1030" stroke-opacity=".05"/><line x1="400" y1="0" x2="400" y2="500" stroke="#1A1030" stroke-opacity=".05"/><line x1="450" y1="0" x2="450" y2="500" stroke="#1A1030" stroke-opacity=".05"/><line x1="500" y1="0" x2="500" y2="500" stroke="#1A1030" stroke-opacity=".05"/><line x1="550" y1="0" x2="550" y2="500" stroke="#1A1030" stroke-opacity=".05"/><line x1="600" y1="0" x2="600" y2="500" stroke="#1A1030" stroke-opacity=".05"/><line x1="650" y1="0" x2="650" y2="500" stroke="#1A1030" stroke-opacity=".05"/><line x1="700" y1="0" x2="700" y2="500" stroke="#1A1030" stroke-opacity=".05"/><line x1="750" y1="0" x2="750" y2="500" stroke="#1A1030" stroke-opacity=".05"/><line x1="800" y1="0" x2="800" y2="500" stroke="#1A1030" stroke-opacity=".05"/><line x1="0" y1="0" x2="800" y2="0" stroke="#1A1030" stroke-opacity=".05"/><line x1="0" y1="50" x2="800" y2="50" stroke="#1A1030" stroke-opacity=".05"/><line x1="0" y1="100" x2="800" y2="100" stroke="#1A1030" stroke-opacity=".05"/><line x1="0" y1="150" x2="800" y2="150" stroke="#1A1030" stroke-opacity=".05"/><line x1="0" y1="200" x2="800" y2="200" stroke="#1A1030" stroke-opacity=".05"/><line x1="0" y1="250" x2="800" y2="250" stroke="#1A1030" stroke-opacity=".05"/><line x1="0" y1="300" x2="800" y2="300" stroke="#1A1030" stroke-opacity=".05"/><line x1="0" y1="350" x2="800" y2="350" stroke="#1A1030" stroke-opacity=".05"/><line x1="0" y1="400" x2="800" y2="400" stroke="#1A1030" stroke-opacity=".05"/><line x1="0" y1="450" x2="800" y2="450" stroke="#1A1030" stroke-opacity=".05"/><line x1="0" y1="500" x2="800" y2="500" stroke="#1A1030" stroke-opacity=".05"/><path d="M201 351 A53 53 0 0 1 307 351Z" fill="#FF6B5B" fill-opacity="0.53"/><rect x="628" y="317" width="72" height="72" rx="12" fill="#14A38B" fill-opacity="0.67" transform="rotate(-16 664 353)"/><circle cx="287" cy="282" r="58" fill="#6D4AC8" fill-opacity="0.74"/><circle cx="502" cy="198" r="31" fill="#FF6B5B" fill-opacity="0.9"/><path d="M274 126 A21 21 0 0 1 316 126Z" fill="#14A38B" fill-opacity="0.48"/><circle cx="466" cy="230" r="23" fill="#6D4AC8" fill-opacity="0.83"/><path d="M594 349 L616 393 L572 393Z" fill="#FF6B5B" fill-opacity="0.78"/><path d="M426 328 L461 398 L391 398Z" fill="#14A38B" fill-opacity="0.81"/><circle cx="521" cy="171" r="54" fill="#6D4AC8" fill-opacity="0.7"/><path d="M60 221 L180 164 L320 383 L460 338 L600 294 L740 247" fill="none" stroke="#1A1030" stroke-opacity=".55" stroke-width="3" stroke-linecap="round" stroke-linejoin="round"/><circle cx="60" cy="221" r="6" fill="#FBF9FF" stroke="#1A1030" stroke-width="3"/><circle cx="180" cy="164" r="6" fill="#FBF9FF" stroke="#1A1030" stroke-width="3"/><circle cx="320" cy="383" r="6" fill="#FBF9FF" stroke="#1A1030" stroke-width="3"/><circle cx="460" cy="338" r="6" fill="#FBF9FF" stroke="#1A1030" stroke-width="3"/><circle cx="600" cy="294" r="6" fill="#FBF9FF" stroke="#1A1030" stroke-width="3"/><circle cx="740" cy="247" r="6" fill="#FBF9FF" stroke="#1A1030" stroke-width="3"/><rect x="0" y="0" width="800" height="500" fill="none" stroke="#1A1030" stroke-opacity=".15" stroke-width="2"/></svg>
