<svg xmlns="http://www.w3.org/2000/svg" viewBox="0 0 800 500" role="img" aria-label="Figura 2: composição geométrica ilustrativa"><rect width="800" height="500" fill="#FBF9FF"/><rect x="0" y="0" width="800" height="500" fill="#14A38B" fill-opacity=".05"/><line x1="0" y1="0" x2="0" y2="500" stroke="#1A1030" stroke-opacity=".05"/><line x1="50" y1="0" x2="50" y2="500" stroke="#1A1030" stroke-opacity=".05"/><line x1="100" y1="0" x2="100" y2="500" stroke="#1A1030" stroke-opacity=".05"/><line x1="150" y1="0" x2="150" y2="500" stroke="#1A1030" stroke-opacity=".05"/><line x1="200" y1="0" x2="200" y2="500" stroke="#1A1030" stroke-opacity=".05"/><line x1="250" y1="0" x2="250" y2="500" stroke="#1A1030" stroke-opacity=".05"/><line x1="300" y1="0" x2="300" y2="500" stroke="#1A1030" stroke-opacity=".05"/><line x1="350" y1="0" x2="350" y2="500" stroke="#1A1030" stroke-opacity=".05"/><line x1="400" y1="0" x2="400" y2="500" stroke="#1A1030" stroke-opacity=".05"/><line x1="450" y1="0" x2="450" y2="500" stroke="#1A1030" stroke-opacity=".05"/><line x1="500" y1="0" x2="500" y2="500" stroke="#1A1030" stroke-opacity=".05"/><line x1="550" y1="0" x2="550" y2="500" stroke="#1A1030" stroke-opacity=".05"/><line x1="600" y1="0" x2="600" y2="500" stroke="#1A1030" stroke-opacity=".05"/><line x1="650" y1="0" x2="650" y2="500" stroke="#1A1030" stroke-opacity=".05"/><line x1="700" y1="0" x2="700" y2="500" stroke="#1A1030" stroke-opacity=".05"/><line x1="750" y1="0" x2="750" y2="500" stroke="#1A1030" stroke-opacity=".05"/><line x1="800" y1="0" x2="800" y2="500" stroke="#1A1030" stroke-opacity=".05"/><line x1="0" y1="0" x2="800" y2="0" stroke="#1A1030" stroke-opacity=".05"/><line x1="0" y1="50" x2="800" y2="50" stroke="#1A1030" stroke-opacity=".05"/><line x1="0" y1="100" x2="800" y2="100" stroke="#1A1030" stroke-opacity=".05"/><line x1="0" y1="150" x2="800" y2="150" stroke="#1A1030" stroke-opacity=".05"/><line x1="0" y1="200" x2="800" y2="200" stroke="#1A1030" stroke-opacity=".05"/><line x1="0" y1="250" x2="800" y2="250" stroke="#1A1030" stroke-opacity=".05"/><line x1="0" y1="300" x2="800" y2="300" stroke="#1A1030" stroke-opacity=".05"/><line x1="0" y1="350" x2="800" y2="350" stroke="#1A1030" stroke-opacity=".05"/><line x1="0" y1="400" x2="800" y2="400" stroke="#1A1030" stroke-opacity=".05"/><line x1="0" y1="450" x2="800" y2="450" stroke="#1A1030" stroke-opacity=".05"/><line x1="0" y1="500" x2="800" y2="500" stroke="#1A1030" stroke-opacity=".05"/><rect x="482" y="102" width="67" height="67" rx="11" fill="#14A38B" fill-opacity="0.56" transform="rotate(8 515 135)"/><path d="M179 230 A48 48 0 0 1 275 230Z" fill="#6D4AC8" fill-opacity="0.38"/><path d="M595 239 A20 20 0 0 1 635 239Z" fill="#F4B740" fill-opacity="0.54"/><circle cx="600" cy="248" r="32" fill="#14A38B" fill-opacity="0.75"/><path d="M320 262 A20 20 0 0 1 360 262Z" fill="#6D4AC8" fill-opacity="0.52"/><rect x="276" y="267" width="56" height="56" rx="9" fill="#F4B740" fill-opacity="0.57" transform="rotate(12 304 295)"/><path d="M132 178 L162 238 L102 238Z" fill="#14A38B" fill-opacity="0.86"/><rect x="259" y="262" width="76" height="76" rx="12" fill="#6D4AC8" fill-opacity="0.7" transform="rotate(-13 297 300)"/><path d="M206 252 L233 306 L179 306Z" fill="#F4B740" fill-opacity="0.57"/><path d="M60 209 L180 236 L320 393 L460 171 L600 116 L740 163" fill="none" stroke="#1A1030" stroke-opacity=".55" stroke-width="3" stroke-linecap="round" stroke-linejoin="round"/><circle cx="60" cy="209" r="6" fill="#FBF9FF" stroke="#1A1030" stroke-width="3"/><circle cx="180" cy="236" r="6" fill="#FBF9FF" stroke="#1A1030" stroke-width="3"/><circle cx="320" cy="393" r="6" fill="#FBF9FF" stroke="#1A1030" stroke-width="3"/><circle cx="460" cy="171" r="6" fill="#FBF9FF" stroke="#1A1030" stroke-width="3"/><circle cx="600" cy="116" r="6" fill="#FBF9FF" stroke="#1A1030" stroke-width="3"/><circle cx="740" cy="163" r="6" fill="#FBF9FF" stroke="#1A1030" stroke-width="3"/><rect x="0" y="0" width="800" height="500" fill="none" stroke="#1A1030" stroke-opacity=".15" stroke-width="2"/></svg>
